HIERARCHY
ROOT Hips
{
	OFFSET -0.001795 -0.223333 0.028219
	CHANNELS 6 Xposition Yposition Zposition Zrotation Yrotation Xrotation 
	JOINT LeftUpLeg
	{
		OFFSET 0.069520 -0.091406 -0.006815
		CHANNELS 3 Zrotation Yrotation Xrotation
		JOINT LeftLeg
		{
			OFFSET 0.034277 -0.375199 -0.004496
			CHANNELS 3 Zrotation Yrotation Xrotation
			JOINT LeftFoot
			{
				OFFSET -0.013596 -0.397961 -0.043693
				CHANNELS 3 Zrotation Yrotation Xrotation
				JOINT LeftToe
				{
					OFFSET 0.026358 -0.055791 0.119288
					CHANNELS 3 Zrotation Yrotation Xrotation
					End Site
					{
						OFFSET 0.000000 0.000000 0.000000
					}
				}
			}
		}
	}
	JOINT RightUpLeg
	{
		OFFSET -0.067670 -0.090522 -0.004320
		CHANNELS 3 Zrotation Yrotation Xrotation
		JOINT RightLeg
		{
			OFFSET -0.038290 -0.382569 -0.008850
			CHANNELS 3 Zrotation Yrotation Xrotation
			JOINT RightFoot
			{
				OFFSET 0.015774 -0.398415 -0.042312
				CHANNELS 3 Zrotation Yrotation Xrotation
				JOINT RightToe
				{
					OFFSET -0.025372 -0.048144 0.123348
					CHANNELS 3 Zrotation Yrotation Xrotation
					End Site
					{
						OFFSET 0.000000 0.000000 0.000000
					}
				}
			}
		}
	}
	JOINT Spine
	{
		OFFSET -0.002533 0.108963 -0.026696
		CHANNELS 3 Zrotation Yrotation Xrotation
		JOINT Spine1
		{
			OFFSET 0.005487 0.135180 0.001092
			CHANNELS 3 Zrotation Yrotation Xrotation
			JOINT Spine2
			{
				OFFSET 0.001457 0.052922 0.025425
				CHANNELS 3 Zrotation Yrotation Xrotation
				JOINT Neck
				{
					OFFSET -0.002778 0.213870 -0.042857
					CHANNELS 3 Zrotation Yrotation Xrotation
					JOINT Head
					{
						OFFSET 0.005152 0.064970 0.051349
						CHANNELS 3 Zrotation Yrotation Xrotation
						End Site
						{
							OFFSET 0.000000 0.000000 0.000000
						}
					}
				}
				JOINT LeftShoulder
				{
					OFFSET 0.078845 0.121749 -0.034090
					CHANNELS 3 Zrotation Yrotation Xrotation
					JOINT LeftArm
					{
						OFFSET 0.090977 0.030469 -0.008868
						CHANNELS 3 Zrotation Yrotation Xrotation
						JOINT LeftForeArm
						{
							OFFSET 0.259612 -0.012772 -0.027456
							CHANNELS 3 Zrotation Yrotation Xrotation
							JOINT LeftHand
							{
								OFFSET 0.249234 0.008986 -0.001171
								CHANNELS 3 Zrotation Yrotation Xrotation
								End Site
								{
									OFFSET 0.000000 0.000000 0.000000
								}
							}
						}
					}
				}
				JOINT RightShoulder
				{
					OFFSET -0.081759 0.118833 -0.038615
					CHANNELS 3 Zrotation Yrotation Xrotation
					JOINT RightArm
					{
						OFFSET -0.096012 0.032551 -0.009143
						CHANNELS 3 Zrotation Yrotation Xrotation
						JOINT RightForeArm
						{
							OFFSET -0.253742 -0.013329 -0.021401
							CHANNELS 3 Zrotation Yrotation Xrotation
							JOINT RightHand
							{
								OFFSET -0.255298 0.007772 -0.005559
								CHANNELS 3 Zrotation Yrotation Xrotation
								End Site
								{
									OFFSET 0.000000 0.000000 0.000000
								}
							}
						}
					}
				}
			}
		}
	}
}
MOTION
Frames: 7
Frame Time: 0.050000
0.000000 0.956926 0.000000 -0.192250 -3.892027 3.819369 7.652941 -0.151615 -2.604934 -3.378631 0.396818 0.011302 14.952667 25.321761 29.499115 0.000000 0.000000 0.000000 -7.596757 0.499280 -5.435177 3.610130 -0.309595 3.375061 -17.223994 -31.779112 26.912198 0.000000 0.000000 0.000000 6.809840 -0.804522 6.831798 -7.987063 2.479296 -23.355719 -2.026425 6.500026 28.630826 9.101569 -3.774038 -22.215308 0.000000 0.000000 0.000000 -4.576795 -1.479601 0.175390 -39.678875 4.292979 -7.827475 -76.840237 -37.002847 31.381162 0.000000 0.000000 0.000000 15.965191 -9.609641 -5.125712 39.956898 -2.014170 -6.594008 76.684511 33.438663 29.734541 0.000000 0.000000 0.000000 
-0.000032 0.955952 0.001382 -0.558820 -2.936517 4.365355 8.267691 -0.164998 -2.252655 -3.234991 0.377171 -1.119632 13.064653 23.520542 27.108700 0.000000 0.000000 0.000000 -6.743750 0.486504 -5.242044 2.682379 -0.219718 2.418357 -17.603624 -32.002738 27.805179 0.000000 0.000000 0.000000 7.297857 -0.752657 5.753176 -8.336954 2.575853 -23.243173 -2.051007 5.056782 28.476732 7.484055 -2.789221 -22.751275 0.000000 0.000000 0.000000 -5.062189 -0.554585 -0.169829 -38.852689 4.907169 -7.818929 -76.849859 -35.100482 29.961272 0.000000 0.000000 0.000000 15.018231 -8.490043 -4.578386 40.806063 -2.849520 -6.903142 77.931815 33.312633 29.922778 0.000000 0.000000 0.000000 
-0.000116 0.955566 0.002867 -0.397395 -1.761917 4.495619 8.166363 -0.212097 -3.332603 -3.033112 0.336169 0.706093 11.799456 22.282719 25.168231 0.000000 0.000000 0.000000 -6.663237 0.457875 -4.963801 2.631339 -0.225595 2.232856 -18.701579 -33.087121 28.414385 0.000000 0.000000 0.000000 7.226633 -0.630621 4.533981 -7.456896 2.425406 -21.996245 -2.941371 5.648137 28.920703 8.855613 -3.401417 -23.241766 0.000000 0.000000 0.000000 -4.984512 -1.555775 0.151739 -39.071760 4.024276 -7.684177 -75.444685 -35.917750 29.514505 0.000000 0.000000 0.000000 16.113660 -9.913652 -5.211428 41.463494 -2.595470 -7.060234 74.756523 33.265984 28.972160 0.000000 0.000000 0.000000 
-0.000310 0.955609 0.004661 -0.126465 -1.456450 4.976973 8.113949 -0.233377 -3.586795 -3.241243 0.359770 0.373958 11.273847 21.699194 25.004790 0.000000 0.000000 0.000000 -6.818797 0.454640 -4.834919 2.544275 -0.229270 1.546718 -18.822279 -33.256818 28.192705 0.000000 0.000000 0.000000 7.300226 -0.533959 3.443016 -7.943941 2.525969 -22.597605 -2.897043 4.928759 29.916645 8.888839 -3.623574 -22.831599 0.000000 0.000000 0.000000 -5.750680 -1.716624 0.216479 -37.753712 4.241007 -7.529637 -76.132519 -34.961165 29.160803 0.000000 0.000000 0.000000 16.302638 -9.842941 -5.292634 40.608343 -1.364469 -6.624285 75.245358 31.633569 27.521467 0.000000 0.000000 0.000000 
-0.000581 0.955447 0.006558 -0.086267 -1.098510 4.807212 8.036158 -0.239474 -3.647429 -3.100619 0.337781 0.915991 11.085394 21.523382 24.696325 0.000000 0.000000 0.000000 -6.750693 0.430926 -4.458847 2.180720 -0.195085 1.301851 -19.056511 -33.300949 29.117780 0.000000 0.000000 0.000000 6.857405 -0.482766 3.193246 -6.936388 2.304553 -21.943811 -3.327735 4.537072 29.343265 9.055527 -3.878907 -22.038017 0.000000 0.000000 0.000000 -6.248777 -1.954494 0.283836 -37.429863 4.244306 -7.417426 -76.164755 -34.545375 28.821941 0.000000 0.000000 0.000000 15.899734 -9.384872 -5.033324 40.597801 -0.953329 -6.442228 73.972776 31.197082 26.464906 0.000000 0.000000 0.000000 
-0.000843 0.955302 0.008145 0.087935 -0.744433 4.892709 8.096472 -0.244321 -3.499084 -3.210376 0.350043 0.547828 10.433828 20.787064 24.607944 0.000000 0.000000 0.000000 -6.827666 0.421007 -4.320150 1.853204 -0.166913 0.989185 -19.325199 -33.395075 29.962632 0.000000 0.000000 0.000000 6.737854 -0.415098 2.544334 -7.096574 2.350145 -21.985486 -3.097905 4.079314 29.703991 9.387371 -4.094024 -22.393122 0.000000 0.000000 0.000000 -6.444054 -2.369738 0.468168 -37.077376 3.683297 -7.218951 -76.073929 -32.999209 27.516630 0.000000 0.000000 0.000000 15.618846 -8.954694 -4.798578 40.880491 -0.387242 -6.343586 73.691952 30.400571 25.658055 0.000000 0.000000 0.000000 
-0.001112 0.955033 0.009148 0.112316 -0.940905 4.859813 8.139980 -0.236468 -3.342332 -3.274065 0.359620 0.394616 10.544708 20.891315 25.004950 0.000000 0.000000 0.000000 -6.685032 0.414904 -4.106875 1.814396 -0.167838 0.735258 -19.565465 -33.746762 29.660595 0.000000 0.000000 0.000000 6.664022 -0.373292 2.169640 -6.710307 2.259379 -21.698060 -3.301448 4.186530 29.427440 9.736989 -4.329609 -22.297661 0.000000 0.000000 0.000000 -6.528666 -2.794345 0.635302 -36.798888 3.769098 -7.159588 -75.580930 -32.021528 26.407282 0.000000 0.000000 0.000000 15.753656 -8.302696 -4.470612 40.689930 0.040324 -6.172156 72.207492 30.526242 25.038238 0.000000 0.000000 0.000000 
